<?xml version="1.0" encoding="UTF-8"?>
<!DOCTYPE svg PUBLIC "-//W3C//DTD SVG 1.1//EN" "http://www.w3.org/Graphics/SVG/1.1/DTD/svg11.dtd">
<svg version="1.2" xmlns="http://www.w3.org/2000/svg" xmlns:xlink="http://www.w3.org/1999/xlink" x="0" y="0" width="292" height="152" viewBox="0 0 292 152">
<style type="text/css"><![CDATA[
text { font:12px Dialog; }
]]></style>
<rect x="-485" y="-485" width="1262" height="1122" style="fill:rgb(255,255,255);stroke:none" />
<clipPath id="clip1"><path d="M15,15 L277,15 L277,137 L15,137 Z M23,47 C18.5817184,47 15,50.5817184 15,55 L15,95 C15,99.4182816 18.5817184,103 23,103 L139,103 C143.4182739,103 147,99.4182816 147,95 L147,55 C147,50.5817184 143.4182739,47 139,47 Z M23,47" /></clipPath>
<path d="M157,75 L157,39.7200012 C157,35.3040009 160.5839996,31.7200012 165,31.7200012 L179,31.7200012" style="fill:none;stroke:rgb(85,142,213)" clip-path="url(#clip1)" />
<clipPath id="clip2"><path d="M15,15 L277,15 L277,137 L15,137 Z M23,47 C18.5817184,47 15,50.5817184 15,55 L15,95 C15,99.4182816 18.5817184,103 23,103 L139,103 C143.4182739,103 147,99.4182816 147,95 L147,55 C147,50.5817184 143.4182739,47 139,47 Z M23,47" /></clipPath>
<path d="M157,75 C157,75.391922 160.5839996,75.7099991 165,75.7099991 L179,75.7099991" style="fill:none;stroke:rgb(85,142,213)" clip-path="url(#clip2)" />
<clipPath id="clip3"><path d="M15,15 L277,15 L277,137 L15,137 Z M23,47 C18.5817184,47 15,50.5817184 15,55 L15,95 C15,99.4182816 18.5817184,103 23,103 L139,103 C143.4182739,103 147,99.4182816 147,95 L147,55 C147,50.5817184 143.4182739,47 139,47 Z M23,47" /></clipPath>
<path d="M157,75 L157,111.7437134 C157,116.1597137 160.5839996,119.7437134 165,119.7437134 L179,119.7437134" style="fill:none;stroke:rgb(85,142,213)" clip-path="url(#clip3)" />
<clipPath id="clip4"><path d="M14,14 L278,14 L278,138 L14,138 L14,14 Z" /></clipPath>
<path d="M147,75 L157,75" style="fill:none;stroke:rgb(85,142,213)" clip-path="url(#clip4)" />
<clipPath id="clip5"><path d="M14,46 L149,46 L149,105 L14,105 L14,46 Z" /></clipPath>
<path d="M23,47 C18.5817184,47 15,50.5817184 15,55 L15,95 C15,99.4182816 18.5817184,103 23,103 L139,103 C143.4182739,103 147,99.4182816 147,95 L147,55 C147,50.5817184 143.4182739,47 139,47 Z M23,47" style="fill:rgb(220,230,242);stroke:none" clip-path="url(#clip5)" />
<clipPath id="clip6"><path d="M45,61 L118,61 L118,90 L45,90 L45,61 Z" /></clipPath>
<path d="M49.7055664,80.4042969 L49.7055664,66.0166016 L51.4282227,66.0166016 L51.4282227,80.4042969 Z M53.8540039,75.6494141 C53.8540039,74.0439377 54.3022423,72.7768631 55.1987305,71.8481445 C56.0952187,70.919426 57.3110275,70.4550781 58.8461914,70.4550781 C60.3051834,70.4550781 61.4492149,70.9018478 62.2783203,71.7954102 C63.1074257,72.6889725 63.5219727,73.9238205 63.5219727,75.5 C63.5219727,77.0351639 63.0795937,78.2744064 62.1948242,79.2177734 C61.3100548,80.1611404 60.1235428,80.6328125 58.6352539,80.6328125 C57.1821213,80.6328125 56.0219765,80.1757889 55.1547852,79.2617188 C54.2875938,78.3476486 53.8540039,77.1435623 53.8540039,75.6494141 Z M55.6118164,75.5966797 C55.6118164,76.7158279 55.8945313,77.5976563 56.4599609,78.2421875 C57.0253906,78.8867188 57.7856369,79.2089844 58.7407227,79.2089844 C59.7251053,79.2089844 60.4750977,78.894043 60.9907227,78.2641602 C61.5063477,77.6342773 61.7641602,76.7304764 61.7641602,75.5527344 C61.7641602,74.369133 61.5063477,73.4609375 60.9907227,72.828125 C60.4750977,72.1953125 59.7251053,71.8789063 58.7407227,71.8789063 C57.7739182,71.8789063 57.0107422,72.2099609 56.4511719,72.8720703 C55.8916016,73.5341797 55.6118164,74.4423752 55.6118164,75.5966797 Z M74.3852539,79.5869141 C74.3852539,83.1845856 72.6391754,84.9833984 69.1469727,84.9833984 C67.9399338,84.9833984 66.8911209,84.7578125 66.0004883,84.3066406 L66.0004883,82.6455078 C67.0844803,83.2490234 68.1245041,83.5507813 69.1206055,83.5507813 C71.4819489,83.5507813 72.6625977,82.308609 72.6625977,79.8242188 L72.6625977,78.7958984 L72.6274414,78.7958984 C71.8891602,80.0205154 70.7876053,80.6328125 69.3227539,80.6328125 C68.1039963,80.6328125 67.128418,80.1962967 66.3959961,79.3232422 C65.6635742,78.4501877 65.2973633,77.2929764 65.2973633,75.8515625 C65.2973633,74.1933517 65.7016602,72.8794022 66.5102539,71.909668 C67.3188477,70.9399338 68.396965,70.4550781 69.7446289,70.4550781 C71.0395584,70.4550781 72.0004883,70.9706955 72.6274414,72.0019531 L72.6625977,72.0019531 L72.6625977,70.6835938 L74.3852539,70.6835938 Z M72.6625977,74.6210938 C72.668457,73.8710938 72.4165039,73.2265625 71.9067383,72.6875 C71.3969727,72.1484375 70.7700195,71.8789063 70.0258789,71.8789063 C69.0883713,71.8789063 68.3588867,72.2231445 67.8374023,72.9116211 C67.315918,73.6000977 67.0551758,74.5449142 67.0551758,75.7460938 C67.0551758,76.7773514 67.3071289,77.6123047 67.8110352,78.2509766 C68.3149414,78.8896484 68.9829102,79.2089844 69.8149414,79.2089844 C70.652832,79.2089844 71.3383789,78.9042969 71.871582,78.2949219 C72.4047852,77.6855469 72.668457,76.912117 72.6625977,75.9746094 Z M85.8989258,79.5869141 C85.8989258,83.1845856 84.1528473,84.9833984 80.6606445,84.9833984 C79.4536057,84.9833984 78.4047928,84.7578125 77.5141602,84.3066406 L77.5141602,82.6455078 C78.5981522,83.2490234 79.638176,83.5507813 80.6342773,83.5507813 C82.9956207,83.5507813 84.1762695,82.308609 84.1762695,79.8242188 L84.1762695,78.7958984 L84.1411133,78.7958984 C83.402832,80.0205154 82.3012772,80.6328125 80.8364258,80.6328125 C79.6176682,80.6328125 78.6420898,80.1962967 77.909668,79.3232422 C77.1772461,78.4501877 76.8110352,77.2929764 76.8110352,75.8515625 C76.8110352,74.1933517 77.2153244,72.8794022 78.0239258,71.909668 C78.8325272,70.9399338 79.9106369,70.4550781 81.2583008,70.4550781 C82.5532303,70.4550781 83.5141602,70.9706955 84.1411133,72.0019531 L84.1762695,72.0019531 L84.1762695,70.6835938 L85.8989258,70.6835938 Z M84.1762695,74.6210938 C84.1821289,73.8710938 83.9301758,73.2265625 83.4204102,72.6875 C82.9106445,72.1484375 82.2836914,71.8789063 81.5395508,71.8789063 C80.6020432,71.8789063 79.8725586,72.2231445 79.3510742,72.9116211 C78.8295898,73.6000977 78.5688477,74.5449142 78.5688477,75.7460938 C78.5688477,76.7773514 78.8208008,77.6123047 79.324707,78.2509766 C79.8286133,78.8896484 80.4965744,79.2089844 81.3286133,79.2089844 C82.1665115,79.2089844 82.8520508,78.9042969 83.3852539,78.2949219 C83.918457,77.6855469 84.1821289,76.912117 84.1762695,75.9746094 Z M88.7641602,67.2558594 C88.7641602,66.9511719 88.8681641,66.6948242 89.0761719,66.4868164 C89.2841797,66.2788086 89.5405273,66.1748047 89.8452148,66.1748047 C90.1557617,66.1748047 90.4179688,66.2773438 90.6318359,66.4824219 C90.8457031,66.6875 90.9526367,66.9453125 90.9526367,67.2558594 C90.9526367,67.5605469 90.8457031,67.8139648 90.6318359,68.0161133 C90.4179688,68.2182617 90.1557617,68.3193359 89.8452148,68.3193359 C89.534668,68.3193359 89.2768555,68.2182617 89.0717773,68.0161133 C88.8666992,67.8139648 88.7641602,67.5605469 88.7641602,67.2558594 Z M88.9663086,80.4042969 L88.9663086,70.6835938 L90.6889648,70.6835938 L90.6889648,80.4042969 Z M101.9829102,80.4042969 L100.269043,80.4042969 L100.269043,74.8759766 C100.269043,72.8779221 99.5395584,71.8789063 98.0805664,71.8789063 C97.324707,71.8789063 96.7036133,72.1601563 96.2172852,72.7226563 C95.730957,73.2851563 95.487793,73.9970627 95.487793,74.8583984 L95.487793,80.4042969 L93.7651367,80.4042969 L93.7651367,70.6835938 L95.487793,70.6835938 L95.487793,72.2919922 L95.5229492,72.2919922 C96.2553711,71.0673752 97.31884,70.4550781 98.7133789,70.4550781 C99.7797928,70.4550781 100.5913086,70.7963867 101.1479492,71.4790039 C101.7045898,72.1616211 101.9829102,73.1562424 101.9829102,74.4628906 Z M113.2944336,79.5869141 C113.2944336,83.1845856 111.5483551,84.9833984 108.0561523,84.9833984 C106.8491135,84.9833984 105.800293,84.7578125 104.909668,84.3066406 L104.909668,82.6455078 C105.99366,83.2490234 107.0336838,83.5507813 108.0297852,83.5507813 C110.3911285,83.5507813 111.5717773,82.308609 111.5717773,79.8242188 L111.5717773,78.7958984 L111.5366211,78.7958984 C110.7983398,80.0205154 109.696785,80.6328125 108.2319336,80.6328125 C107.013176,80.6328125 106.0375977,80.1962967 105.3051758,79.3232422 C104.5727539,78.4501877 104.206543,77.2929764 104.206543,75.8515625 C104.206543,74.1933517 104.6108398,72.8794022 105.4194336,71.909668 C106.2280273,70.9399338 107.3061447,70.4550781 108.6538086,70.4550781 C109.9487381,70.4550781 110.909668,70.9706955 111.5366211,72.0019531 L111.5717773,72.0019531 L111.5717773,70.6835938 L113.2944336,70.6835938 Z M111.5717773,74.6210938 C111.5776367,73.8710938 111.3256836,73.2265625 110.815918,72.6875 C110.3061523,72.1484375 109.6791992,71.8789063 108.9350586,71.8789063 C107.9975586,71.8789063 107.2680664,72.2231445 106.746582,72.9116211 C106.2250977,73.6000977 105.9643555,74.5449142 105.9643555,75.7460938 C105.9643555,76.7773514 106.2163086,77.6123047 106.7202148,78.2509766 C107.2241211,78.8896484 107.8920898,79.2089844 108.7241211,79.2089844 C109.5620117,79.2089844 110.2475586,78.9042969 110.7807617,78.2949219 C111.3139648,77.6855469 111.5776367,76.912117 111.5717773,75.9746094 Z M114.8325195,80.4042969" style="fill:rgb(55,96,146);stroke:none" clip-path="url(#clip6)" />
<clipPath id="clip7"><path d="M178,14 L269,14 L269,50 L178,50 L178,14 Z" /></clipPath>
<path d="M184,15 C181.2385712,15 179,17.238575 179,20 L179,43 C179,45.761425 181.2385712,48 184,48 L262,48 C264.7614136,48 267,45.761425 267,43 L267,20 C267,17.238575 264.7614136,15 262,15 Z M184,15" style="fill:rgb(220,230,242);stroke:none" clip-path="url(#clip7)" />
<clipPath id="clip8"><path d="M190,21 L257,21 L257,43 L190,43 L190,21 Z" /></clipPath>
<path d="M198.4152832,37.5224609 L192.5881348,37.5224609 L192.5881348,36.7036133 L198.4152832,36.7036133 Z M204.4152832,37.5224609 L198.5881348,37.5224609 L198.5881348,36.7036133 L204.4152832,36.7036133 Z M205.5466309,25.9887695 C205.5466309,25.7687149 205.6217346,25.58358 205.7719727,25.4333496 C205.9222107,25.2831192 206.1073303,25.2080078 206.3273926,25.2080078 C206.5516663,25.2080078 206.7410583,25.2820625 206.8955078,25.4301758 C207.0499573,25.578289 207.1271973,25.7644844 207.1271973,25.9887695 C207.1271973,26.2088242 207.0499573,26.3918457 206.8955078,26.5378418 C206.7410583,26.6838379 206.5516663,26.7568359 206.3273926,26.7568359 C206.1031189,26.7568359 205.9169006,26.6838379 205.7687988,26.5378418 C205.620697,26.3918457 205.5466309,26.2088242 205.5466309,25.9887695 Z M205.692627,35.4848633 L205.692627,28.4643555 L206.9367676,28.4643555 L206.9367676,35.4848633 Z M214.6340332,35.4848633 L213.3962402,35.4848633 L213.3962402,31.4921875 C213.3962402,30.0491447 212.8693848,29.3276367 211.8156738,29.3276367 C211.2697754,29.3276367 210.8212128,29.5307579 210.4699707,29.9370117 C210.1187286,30.3432655 209.9431152,30.8574181 209.9431152,31.4794922 L209.9431152,35.4848633 L208.6989746,35.4848633 L208.6989746,28.4643555 L209.9431152,28.4643555 L209.9431152,29.6259766 L209.9685059,29.6259766 C210.4974823,28.7415314 211.2655334,28.2993164 212.2727051,28.2993164 C213.0428925,28.2993164 213.6289825,28.5458145 214.0310059,29.0388184 C214.4330292,29.5318222 214.6340332,30.2501564 214.6340332,31.1938477 Z M216.5466309,25.9887695 C216.5466309,25.7687149 216.6217499,25.58358 216.7719727,25.4333496 C216.9221954,25.2831192 217.1073456,25.2080078 217.3273926,25.2080078 C217.5516815,25.2080078 217.7410431,25.2820625 217.8955078,25.4301758 C218.0499725,25.578289 218.1271973,25.7644844 218.1271973,25.9887695 C218.1271973,26.2088242 218.0499725,26.3918457 217.8955078,26.5378418 C217.7410431,26.6838379 217.5516815,26.7568359 217.3273926,26.7568359 C217.1031036,26.7568359 216.9169159,26.6838379 216.7687988,26.5378418 C216.6206818,26.3918457 216.5466309,26.2088242 216.5466309,25.9887695 Z M216.692627,35.4848633 L216.692627,28.4643555 L217.9367676,28.4643555 L217.9367676,35.4848633 Z M223.0695801,35.4150391 C222.7987518,35.5631523 222.4326935,35.637207 221.9714355,35.637207 C220.7145996,35.637207 220.0861816,34.9410858 220.0861816,33.5488281 L220.0861816,29.4926758 L218.880127,29.4926758 L218.880127,28.4643555 L220.0861816,28.4643555 L220.0861816,26.7758789 L221.3239746,26.3823242 L221.3239746,28.4643555 L223.0695801,28.4643555 L223.0695801,29.4926758 L221.3239746,29.4926758 L221.3239746,33.3266602 C221.3239746,33.7879257 221.4022675,34.118 221.5588379,34.3168945 C221.7154083,34.515789 221.9756622,34.6152344 222.3395996,34.6152344 C222.6188965,34.6152344 222.8622284,34.5369492 223.0695801,34.3803711 Z M229.4152832,37.5224609 L223.5881348,37.5224609 L223.5881348,36.7036133 L229.4152832,36.7036133 Z M235.4152832,37.5224609 L229.5881348,37.5224609 L229.5881348,36.7036133 L235.4152832,36.7036133 Z M236.3435059,34.8310547 C236.3435059,34.6025391 236.4217987,34.409996 236.5783691,34.253418 C236.7349396,34.0968399 236.9296112,34.0185547 237.1623535,34.0185547 C237.3993378,34.0185547 237.5961151,34.0979004 237.7526855,34.2565918 C237.909256,34.4152832 237.9875488,34.6067696 237.9875488,34.8310547 C237.9875488,35.0511093 237.909256,35.2404785 237.7526855,35.3991699 C237.5961151,35.5578613 237.3972168,35.637207 237.1560059,35.637207 C236.9232635,35.637207 236.72966,35.5578613 236.5751953,35.3991699 C236.4207306,35.2404785 236.3435059,35.0511093 236.3435059,34.8310547 Z M240.9431152,34.4946289 L240.9431152,38.7158203 L239.6989746,38.7158203 L239.6989746,28.4643555 L240.9431152,28.4643555 L240.9431152,29.6767578 L240.9685059,29.6767578 C241.5186462,28.7584572 242.3226624,28.2993164 243.3806152,28.2993164 C244.2777557,28.2993164 244.9812775,28.6135216 245.4912109,29.2419434 C246.0011444,29.8703651 246.2561035,30.7135353 246.2561035,31.7714844 C246.2561035,32.9394608 245.9672852,33.8778458 245.3896484,34.5866699 C244.8120117,35.2954941 244.0344238,35.6499023 243.0568848,35.6499023 C242.1555176,35.6499023 241.4593964,35.2648163 240.9685059,34.4946289 Z M240.9367676,32.590332 C240.9367676,33.1616249 241.1208496,33.6429825 241.4890137,34.0344238 C241.8571777,34.4258652 242.3184357,34.621582 242.8728027,34.621582 C243.532959,34.621582 244.0492401,34.3676796 244.4216309,33.8598633 C244.7940216,33.352047 244.9802246,32.6495819 244.9802246,31.7524414 C244.9802246,30.9949493 244.8067169,30.4014511 244.4597168,29.9719238 C244.1127167,29.5423965 243.6387634,29.3276367 243.0378418,29.3276367 C242.4242249,29.3276367 241.9206543,29.5455704 241.5270996,29.9814453 C241.1335449,30.4173203 240.9367676,30.9759064 240.9367676,31.6572266 Z M253.4118652,28.4643555 L250.2253418,36.5449219 C249.6328888,38.0429764 248.7971191,38.7919922 247.7180176,38.7919922 C247.4091034,38.7919922 247.1446075,38.7581367 246.9245605,38.6904297 L246.9245605,37.5986328 C247.1657715,37.6917305 247.3985138,37.7382813 247.6228027,37.7382813 C248.1856384,37.7382813 248.6066895,37.4082069 248.8859863,36.7480469 L249.4255371,35.472168 L246.6706543,28.4643555 L248.0480957,28.4643555 L249.8825684,33.7392578 L250.0349121,34.3168945 L250.0666504,34.3168945 C250.092041,34.1857071 250.1428223,33.9973984 250.2189941,33.7519531 L252.1359863,28.4643555 Z M253.4689941,35.4848633" style="fill:rgb(23,55,94);stroke:none" clip-path="url(#clip8)" />
<clipPath id="clip9"><path d="M178,58 L265,58 L265,94 L178,94 L178,58 Z" /></clipPath>
<path d="M184,59 C181.2385712,59 179,61.238575 179,64 L179,87 C179,89.7614288 181.2385712,92 184,92 L258,92 C260.7614136,92 263,89.7614288 263,87 L263,64 C263,61.238575 260.7614136,59 258,59 Z M184,59" style="fill:rgb(220,230,242);stroke:none" clip-path="url(#clip9)" />
<clipPath id="clip10"><path d="M190,65 L253,65 L253,87 L190,87 L190,65 Z" /></clipPath>
<path d="M198.2280273,79.3007813 C197.6905823,79.6223984 197.0431366,79.7832031 196.2856445,79.7832031 C195.2700195,79.7832031 194.4532928,79.4573593 193.8354492,78.8056641 C193.2176056,78.1539688 192.9086914,77.3097382 192.9086914,76.2729492 C192.9086914,75.1219025 193.2419434,74.1940918 193.9084473,73.489502 C194.5749512,72.7849121 195.4667969,72.4326172 196.5839844,72.4326172 C197.2272186,72.4326172 197.7773438,72.546875 198.234375,72.7753906 L198.234375,74.0068359 C197.7392578,73.6428986 197.1891327,73.4609375 196.5839844,73.4609375 C195.8730469,73.4609375 195.2943573,73.7074356 194.8479004,74.2004395 C194.4014435,74.6934433 194.1782227,75.3504181 194.1782227,76.1713867 C194.1782227,76.97966 194.3887482,77.6123047 194.8098145,78.0693359 C195.2308807,78.5263672 195.7989807,78.7548828 196.5141602,78.7548828 C197.1193085,78.7548828 197.6905823,78.5559921 198.2280273,78.1582031 Z M199.9086914,76.184082 C199.9086914,75.0245743 200.2324219,74.1094589 200.8798828,73.4387207 C201.5273438,72.7679825 202.405426,72.4326172 203.5141602,72.4326172 C204.5678711,72.4326172 205.3941193,72.7552872 205.9929199,73.4006348 C206.5917206,74.0459824 206.8911133,74.9378204 206.8911133,76.0761719 C206.8911133,77.1848984 206.5716248,78.0799103 205.9326172,78.7612305 C205.2936096,79.4425507 204.4366913,79.7832031 203.3618164,79.7832031 C202.3123322,79.7832031 201.4744568,79.453125 200.8481445,78.7929688 C200.2218323,78.1328125 199.9086914,77.2631912 199.9086914,76.184082 Z M201.1782227,76.1459961 C201.1782227,76.9542694 201.3824005,77.5911407 201.7907715,78.0566406 C202.1991425,78.5221405 202.7481995,78.7548828 203.4379883,78.7548828 C204.1489258,78.7548828 204.6905823,78.5274277 205.0629883,78.0725098 C205.4353943,77.6175919 205.621582,76.9648514 205.621582,76.1142578 C205.621582,75.2594376 205.4353943,74.6035156 205.0629883,74.1464844 C204.6905823,73.6894531 204.1489258,73.4609375 203.4379883,73.4609375 C202.7397461,73.4609375 202.1885681,73.7000275 201.7844238,74.1782227 C201.3802795,74.6564178 201.1782227,75.3123322 201.1782227,76.1459961 Z M214.3134766,79.6181641 L213.0756836,79.6181641 L213.0756836,75.6254883 C213.0756836,74.1824493 212.5488281,73.4609375 211.4951172,73.4609375 C210.9492188,73.4609375 210.5006561,73.6640625 210.1494141,74.0703125 C209.798172,74.4765625 209.6225586,74.9907227 209.6225586,75.612793 L209.6225586,79.6181641 L208.378418,79.6181641 L208.378418,72.5976563 L209.6225586,72.5976563 L209.6225586,73.7592773 L209.6479492,73.7592773 C210.1769257,72.8748322 210.9449768,72.4326172 211.9521484,72.4326172 C212.7223358,72.4326172 213.3084259,72.6791153 213.7104492,73.1721191 C214.1124725,73.665123 214.3134766,74.383461 214.3134766,75.3271484 Z M219.9775391,70.2871094 C219.7447968,70.1643906 219.4929962,70.1030273 219.222168,70.1030273 C218.443512,70.1030273 218.0541992,70.5854416 218.0541992,71.550293 L218.0541992,72.5976563 L219.6982422,72.5976563 L219.6982422,73.6259766 L218.0541992,73.6259766 L218.0541992,79.6181641 L216.8227539,79.6181641 L216.8227539,73.6259766 L215.6230469,73.6259766 L215.6230469,72.5976563 L216.8227539,72.5976563 L216.8227539,71.4931641 C216.8227539,70.7399063 217.0396271,70.1485214 217.4733887,69.7189941 C217.9071503,69.2894669 218.4583282,69.074707 219.1269531,69.074707 C219.4824219,69.074707 219.7659454,69.1149063 219.9775391,69.1953125 Z M221.2260742,70.1220703 C221.2260742,69.9020157 221.3011932,69.7168808 221.451416,69.5666504 C221.6016388,69.41642 221.7867889,69.3413086 222.0068359,69.3413086 C222.2311249,69.3413086 222.4204865,69.4153671 222.5749512,69.5634766 C222.7294159,69.711586 222.8066406,69.8977814 222.8066406,70.1220703 C222.8066406,70.3421249 222.7294159,70.5251465 222.5749512,70.6711426 C222.4204865,70.8171387 222.2311249,70.8901367 222.0068359,70.8901367 C221.782547,70.8901367 221.5963593,70.8171387 221.4482422,70.6711426 C221.3001251,70.5251465 221.2260742,70.3421249 221.2260742,70.1220703 Z M221.3720703,79.6181641 L221.3720703,72.5976563 L222.6162109,72.5976563 L222.6162109,79.6181641 Z M230.472168,79.027832 C230.472168,81.626152 229.2111053,82.925293 226.6889648,82.925293 C225.817215,82.925293 225.0597382,82.7623749 224.4165039,82.4365234 L224.4165039,81.2368164 C225.1993866,81.6726913 225.9505157,81.890625 226.6699219,81.890625 C228.3753357,81.890625 229.2280273,80.9934998 229.2280273,79.1992188 L229.2280273,78.456543 L229.2026367,78.456543 C228.6694336,79.3409882 227.8738708,79.7832031 226.815918,79.7832031 C225.9356995,79.7832031 225.2311249,79.4679413 224.7021484,78.8374023 C224.173172,78.2068634 223.9086914,77.3711014 223.9086914,76.3300781 C223.9086914,75.1324844 224.2006836,74.1835175 224.784668,73.4831543 C225.3686523,72.7827911 226.1472931,72.4326172 227.1206055,72.4326172 C228.0558319,72.4326172 228.7498322,72.8050079 229.2026367,73.5498047 L229.2280273,73.5498047 L229.2280273,72.5976563 L230.472168,72.5976563 Z M229.2280273,75.4414063 C229.232254,74.8997345 229.050293,74.4342499 228.6821289,74.0449219 C228.3139648,73.6555939 227.8611755,73.4609375 227.3237305,73.4609375 C226.646637,73.4609375 226.1197968,73.709549 225.7431641,74.2067871 C225.3665314,74.7040253 225.1782227,75.3863907 225.1782227,76.2539063 C225.1782227,76.998703 225.3601837,77.6017227 225.7241211,78.0629883 C226.0880585,78.5242538 226.5704651,78.7548828 227.1713867,78.7548828 C227.776535,78.7548828 228.2716522,78.5348358 228.6567383,78.0947266 C229.0418243,77.6546173 229.232254,77.0960312 229.2280273,76.4189453 Z M232.0229492,78.9643555 C232.0229492,78.7358398 232.1012421,78.5432968 232.2578125,78.3867188 C232.4143829,78.2301407 232.6090546,78.1518555 232.8417969,78.1518555 C233.0787811,78.1518555 233.2755585,78.2312012 233.4321289,78.3898926 C233.5886993,78.548584 233.6669922,78.7400742 233.6669922,78.9643555 C233.6669922,79.1844101 233.5886993,79.3737793 233.4321289,79.5324707 C233.2755585,79.6911621 233.0766602,79.7705078 232.8354492,79.7705078 C232.6027069,79.7705078 232.4091034,79.6911621 232.2546387,79.5324707 C232.100174,79.3737793 232.0229492,79.1844101 232.0229492,78.9643555 Z M236.6225586,78.6279297 L236.6225586,82.8491211 L235.378418,82.8491211 L235.378418,72.5976563 L236.6225586,72.5976563 L236.6225586,73.8100586 L236.6479492,73.8100586 C237.1980896,72.8917618 238.0021057,72.4326172 239.0600586,72.4326172 C239.9571991,72.4326172 240.6607208,72.7468262 241.1706543,73.3752441 C241.6805878,74.0036621 241.9355469,74.8468399 241.9355469,75.9047852 C241.9355469,77.0727615 241.6467285,78.0111465 241.0690918,78.7199707 C240.4914551,79.4287949 239.7138672,79.7832031 238.7363281,79.7832031 C237.8349609,79.7832031 237.1388397,79.3981171 236.6479492,78.6279297 Z M236.6162109,76.7236328 C236.6162109,77.2949219 236.800293,77.7762833 237.168457,78.1677246 C237.5366211,78.559166 237.997879,78.7548828 238.5522461,78.7548828 C239.2124023,78.7548828 239.7286835,78.5009766 240.1010742,77.9931641 C240.473465,77.4853516 240.659668,76.7828827 240.659668,75.8857422 C240.659668,75.1282501 240.4861603,74.5347519 240.1391602,74.1052246 C239.79216,73.6756973 239.3182068,73.4609375 238.7172852,73.4609375 C238.1036682,73.4609375 237.6000977,73.6788712 237.206543,74.1147461 C236.8129883,74.550621 236.6162109,75.1092072 236.6162109,75.7905273 Z M249.0913086,72.5976563 L245.9047852,80.6782227 C245.3123322,82.1762772 244.4765625,82.925293 243.3974609,82.925293 C243.0885468,82.925293 242.8240509,82.8914413 242.6040039,82.8237305 L242.6040039,81.7319336 C242.8452148,81.8250351 243.0779572,81.871582 243.3022461,81.871582 C243.8650818,81.871582 244.2861328,81.5415039 244.5654297,80.8813477 L245.1049805,79.6054688 L242.3500977,72.5976563 L243.7275391,72.5976563 L245.5620117,77.8725586 L245.7143555,78.4501953 L245.7460938,78.4501953 C245.7714844,78.3190079 245.8222656,78.1306992 245.8984375,77.8852539 L247.8154297,72.5976563 Z M249.1484375,79.6181641" style="fill:rgb(23,55,94);stroke:none" clip-path="url(#clip10)" />
<clipPath id="clip11"><path d="M178,102 L278,102 L278,138 L178,138 L178,102 Z" /></clipPath>
<path d="M184,103 C181.2385712,103 179,105.2385712 179,108 L179,131 C179,133.7614288 181.2385712,136 184,136 L271,136 C273.7614136,136 276,133.7614288 276,131 L276,108 C276,105.2385712 273.7614136,103 271,103 Z M184,103" style="fill:rgb(220,230,242);stroke:none" clip-path="url(#clip11)" />
<clipPath id="clip12"><path d="M190,109 L266,109 L266,131 L190,131 L190,109 Z" /></clipPath>
<path d="M199.0722656,123.5419922 L197.8344727,123.5419922 L197.8344727,119.5048828 C197.8344727,118.0914612 197.3097382,117.3847656 196.2602539,117.3847656 C195.7228088,117.3847656 195.2763672,117.5910645 194.9208984,118.0036621 C194.5654297,118.4162598 194.3876953,118.9357071 194.3876953,119.5620117 L194.3876953,123.5419922 L193.1435547,123.5419922 L193.1435547,113.1508789 L194.3876953,113.1508789 L194.3876953,117.6767578 L194.4130859,117.6767578 C194.950531,116.7965469 195.7143555,116.3564453 196.7045898,116.3564453 C198.2830505,116.3564453 199.0722656,117.3106995 199.0722656,119.2192383 Z M201.3085938,117.0102539 C202.0068359,116.574379 202.8129883,116.3564453 203.7270508,116.3564453 C205.4197693,116.3564453 206.2661133,117.2451096 206.2661133,119.0224609 L206.2661133,123.5419922 L205.034668,123.5419922 L205.034668,122.456543 L205.0029297,122.456543 C204.5162659,123.2902069 203.798996,123.7070313 202.8510742,123.7070313 C202.169754,123.7070313 201.6280975,123.5229492 201.2260742,123.1547852 C200.8240509,122.7866211 200.6230469,122.2893906 200.6230469,121.6630859 C200.6230469,120.3512268 201.3995667,119.5874023 202.9526367,119.371582 L205.034668,119.0795898 C205.034668,117.9327698 204.5607147,117.359375 203.612793,117.359375 C202.7706604,117.359375 202.0026093,117.6428986 201.3085938,118.2099609 Z M203.390625,120.2412109 C202.815094,120.3173828 202.4183655,120.4612579 202.2004395,120.6728516 C201.9825134,120.8844452 201.8735352,121.1806641 201.8735352,121.5615234 C201.8735352,121.8958359 201.9920349,122.1687775 202.2290039,122.3803711 C202.4659729,122.5919647 202.779129,122.6977539 203.168457,122.6977539 C203.7101288,122.6977539 204.1565704,122.5073242 204.5078125,122.1264648 C204.8590546,121.7456055 205.034668,121.2674179 205.034668,120.6918945 L205.034668,120.019043 Z M214.0786133,123.5419922 L212.8408203,123.5419922 L212.8408203,119.5493164 C212.8408203,118.1062775 212.3139648,117.3847656 211.2602539,117.3847656 C210.7143555,117.3847656 210.2657928,117.5878906 209.9145508,117.9941406 C209.5633087,118.4003906 209.3876953,118.9145508 209.3876953,119.5366211 L209.3876953,123.5419922 L208.1435547,123.5419922 L208.1435547,116.5214844 L209.3876953,116.5214844 L209.3876953,117.6831055 L209.4130859,117.6831055 C209.9420624,116.7986603 210.7101135,116.3564453 211.7172852,116.3564453 C212.4874725,116.3564453 213.0735626,116.6029434 213.4755859,117.0959473 C213.8776093,117.5889511 214.0786133,118.3072815 214.0786133,119.2509766 Z M222.2373047,123.5419922 L220.9931641,123.5419922 L220.9931641,122.3740234 L220.9677734,122.3740234 C220.455719,123.2626953 219.6601563,123.7070313 218.5810547,123.7070313 C217.6923828,123.7070313 216.9856873,123.3907089 216.4609375,122.7580566 C215.9361877,122.1254044 215.6738281,121.2716522 215.6738281,120.1967773 C215.6738281,119.037262 215.970047,118.1073456 216.5625,117.4069824 C217.154953,116.7066193 217.9293518,116.3564453 218.8857422,116.3564453 C219.8421326,116.3564453 220.5361328,116.7288361 220.9677734,117.4736328 L220.9931641,117.4736328 L220.9931641,113.1508789 L222.2373047,113.1508789 Z M220.9995117,119.3652344 C220.9995117,118.8024063 220.8143768,118.3316269 220.4440918,117.9528809 C220.0738068,117.5741348 219.6178436,117.3847656 219.0761719,117.3847656 C218.4160156,117.3847656 217.8955078,117.6312637 217.5146484,118.1242676 C217.1337891,118.6172714 216.9433594,119.2890625 216.9433594,120.1396484 C216.9433594,120.9225311 217.1263885,121.54142 217.4924316,121.9963379 C217.8584747,122.4512558 218.3461914,122.6787109 218.9555664,122.6787109 C219.556488,122.6787109 220.0473633,122.4554901 220.4282227,122.0090332 C220.809082,121.5625763 220.9995117,121.007164 220.9995117,120.3427734 Z M224.137207,123.5419922 L224.137207,113.1508789 L225.3813477,113.1508789 L225.3813477,123.5419922 Z M232.862793,120.3491211 L227.949707,120.3491211 C227.970871,121.0981445 228.1761017,121.6768341 228.5654297,122.0852051 C228.9547577,122.493576 229.4985352,122.6977539 230.1967773,122.6977539 C230.9838867,122.6977539 231.7053986,122.4459686 232.3613281,121.9423828 L232.3613281,123.0532227 C231.7434845,123.4890976 230.9246521,123.7070313 229.9047852,123.7070313 C228.8891602,123.7070313 228.0967712,123.3854218 227.5275879,122.7421875 C226.9584045,122.0989532 226.6738281,121.2060547 226.6738281,120.0634766 C226.6738281,118.9886017 226.9859161,118.1020508 227.6101074,117.4038086 C228.2342987,116.7055664 229.0097656,116.3564453 229.9365234,116.3564453 C230.8548279,116.3564453 231.5720978,116.6516113 232.0883789,117.2419434 C232.60466,117.8322754 232.862793,118.6585236 232.862793,119.7207031 Z M231.6186523,119.3525391 C231.6144257,118.7177734 231.4641876,118.2268906 231.1679688,117.8798828 C230.8717499,117.5328751 230.4549255,117.359375 229.9174805,117.359375 C229.4223633,117.359375 228.9938965,117.543457 228.6320801,117.9116211 C228.2702637,118.2797852 228.0428009,118.7600861 227.949707,119.3525391 Z M237.9077148,117.7529297 C237.7003632,117.6048126 237.4147186,117.5307617 237.0507813,117.5307617 C236.5683594,117.5307617 236.170578,117.7561035 235.8574219,118.2067871 C235.5442657,118.6574707 235.3876953,119.2509766 235.3876953,119.9873047 L235.3876953,123.5419922 L234.1435547,123.5419922 L234.1435547,116.5214844 L235.3876953,116.5214844 L235.3876953,117.949707 L235.4130859,117.949707 C235.7685547,116.9171448 236.3821564,116.4008789 237.2539063,116.4008789 C237.5374298,116.4008789 237.7553711,116.4326172 237.9077148,116.4960938 Z M238.75,122.0249023 C239.3763123,122.4777069 240.0512695,122.7041016 240.7749023,122.7041016 C241.743988,122.7041016 242.2285156,122.3867188 242.2285156,121.7519531 C242.2285156,121.4811172 242.1227264,121.2578964 241.9111328,121.0822754 C241.6995392,120.9066544 241.2700195,120.6982422 240.6225586,120.4570313 C239.8439026,120.1438751 239.3382111,119.8339081 239.1054688,119.5270996 C238.8727264,119.2202911 238.7563477,118.8489609 238.7563477,118.4130859 C238.7563477,117.7910156 239.0197754,117.2927246 239.5466309,116.9182129 C240.0734863,116.5437012 240.7220001,116.3564453 241.4921875,116.3564453 C242.0888672,116.3564453 242.643219,116.4601212 243.1552734,116.6674805 L243.1552734,117.8671875 C242.6305237,117.5286407 242.0359802,117.359375 241.371582,117.359375 C240.9738007,117.359375 240.6500702,117.4461212 240.4003906,117.6196289 C240.1507111,117.7931366 240.0258789,118.0216446 240.0258789,118.3051758 C240.0258789,118.5844727 240.115799,118.8024063 240.2956543,118.9589844 C240.4755096,119.1155624 240.8743439,119.3165665 241.4921875,119.5620117 C242.2750702,119.8540039 242.8040314,120.1565704 243.0791016,120.4697266 C243.3541718,120.7828827 243.4916992,121.1700821 243.4916992,121.6313477 C243.4916992,122.2745819 243.2282715,122.7813263 242.701416,123.1516113 C242.1745605,123.5218964 241.4921875,123.7070313 240.6542969,123.7070313 C239.9264221,123.7070313 239.2916718,123.5695038 238.75,123.2944336 Z M244.7880859,122.8881836 C244.7880859,122.659668 244.8663788,122.4671249 245.0229492,122.3105469 C245.1795197,122.1539688 245.3741913,122.0756836 245.6069336,122.0756836 C245.8439178,122.0756836 246.0406952,122.1550293 246.1972656,122.3137207 C246.3538361,122.4724121 246.4321289,122.6638947 246.4321289,122.8881836 C246.4321289,123.1082382 246.3538361,123.2976074 246.1972656,123.4562988 C246.0406952,123.6149902 245.8417969,123.6943359 245.6005859,123.6943359 C245.3678436,123.6943359 245.1742401,123.6149902 245.0197754,123.4562988 C244.8653107,123.2976074 244.7880859,123.1082382 244.7880859,122.8881836 Z M249.3876953,122.5517578 L249.3876953,126.7729492 L248.1435547,126.7729492 L248.1435547,116.5214844 L249.3876953,116.5214844 L249.3876953,117.7338867 L249.4130859,117.7338867 C249.9632263,116.8155823 250.7672424,116.3564453 251.8251953,116.3564453 C252.7223358,116.3564453 253.4258575,116.6706543 253.935791,117.2990723 C254.4457245,117.9274902 254.7006836,118.7706604 254.7006836,119.8286133 C254.7006836,120.9965897 254.4118652,121.9349747 253.8342285,122.6437988 C253.2565918,123.352623 252.4790039,123.7070313 251.5014648,123.7070313 C250.6000977,123.7070313 249.9039764,123.3219452 249.4130859,122.5517578 Z M249.3813477,120.6474609 C249.3813477,121.21875 249.5654297,121.7001114 249.9335938,122.0915527 C250.3017578,122.4829941 250.7630157,122.6787109 251.3173828,122.6787109 C251.9775391,122.6787109 252.4938202,122.4248047 252.8662109,121.9169922 C253.2386017,121.4091797 253.4248047,120.7067108 253.4248047,119.8095703 C253.4248047,119.0520782 253.251297,118.45858 252.9042969,118.0290527 C252.5572968,117.5995255 252.0833435,117.3847656 251.4824219,117.3847656 C250.8688049,117.3847656 250.3652344,117.6026993 249.9716797,118.0385742 C249.578125,118.4744492 249.3813477,119.0330353 249.3813477,119.7143555 Z M261.8564453,116.5214844 L258.6699219,124.6020508 C258.0774536,126.1001053 257.2416992,126.8491211 256.1625977,126.8491211 C255.8536835,126.8491211 255.5891876,126.8152618 255.3691406,126.7475586 L255.3691406,125.6557617 C255.6103516,125.7488556 255.8430939,125.7954102 256.0673828,125.7954102 C256.6302185,125.7954102 257.0512695,125.465332 257.3305664,124.8051758 L257.8701172,123.5292969 L255.1152344,116.5214844 L256.4926758,116.5214844 L258.3271484,121.7963867 L258.4794922,122.3740234 L258.5112305,122.3740234 C258.5366211,122.242836 258.5874023,122.0545273 258.6635742,121.809082 L260.5805664,116.5214844 Z M261.9135742,123.5419922" style="fill:rgb(23,55,94);stroke:none" clip-path="url(#clip12)" />
</svg>
